<svg xmlns="http://www.w3.org/2000/svg" xmlns:xlink="http://www.w3.org/1999/xlink" width="150" zoomAndPan="magnify" viewBox="0 0 112.5 112.499997" height="150" preserveAspectRatio="xMidYMid meet" version="1.0"><defs><clipPath id="be5861601e"><path d="M 18.742188 44.167969 L 90.335938 44.167969 L 90.335938 111.972656 L 18.742188 111.972656 Z M 18.742188 44.167969 " clip-rule="nonzero"/></clipPath><clipPath id="b41b70e731"><path d="M 86 35.601562 L 98.964844 35.601562 L 98.964844 49.878906 L 86 49.878906 Z M 86 35.601562 " clip-rule="nonzero"/></clipPath><clipPath id="b748375428"><path d="M 10.109375 30 L 26 30 L 26 37 L 10.109375 37 Z M 10.109375 30 " clip-rule="nonzero"/></clipPath><clipPath id="c08cae8fd5"><path d="M 10.109375 21 L 26 21 L 26 36 L 10.109375 36 Z M 10.109375 21 " clip-rule="nonzero"/></clipPath></defs><path fill="#e20016" d="M 82.578125 44.820312 C 78.949219 44.820312 75.964844 47.523438 75.585938 50.988281 L 75.5625 51.226562 C 75.300781 47.648438 72.273438 44.820312 68.5625 44.820312 C 64.9375 44.820312 61.953125 47.523438 61.574219 50.988281 L 61.554688 50.988281 C 61.175781 47.523438 58.191406 44.820312 54.566406 44.820312 C 50.9375 44.820312 47.953125 47.523438 47.574219 50.988281 L 47.554688 50.996094 L 47.554688 50.988281 C 47.175781 47.523438 44.191406 44.820312 40.566406 44.820312 C 36.859375 44.820312 33.828125 47.648438 33.566406 51.226562 L 33.542969 50.988281 C 33.164062 47.523438 30.179688 44.820312 26.554688 44.820312 C 22.667969 44.820312 19.519531 47.917969 19.519531 51.742188 L 29.890625 111.378906 L 79.242188 111.378906 L 89.609375 51.742188 C 89.609375 47.917969 86.460938 44.820312 82.578125 44.820312 " fill-opacity="1" fill-rule="nonzero"/><g clip-path="url(#be5861601e)"><path fill="#e20016" d="M 89.609375 51.742188 L 89.613281 51.742188 Z M 30.390625 110.785156 L 78.738281 110.785156 L 89.015625 51.691406 C 88.988281 48.226562 86.109375 45.417969 82.578125 45.417969 C 79.28125 45.417969 76.53125 47.839844 76.179688 51.054688 L 76.15625 51.285156 C 76.125 51.589844 75.867188 51.820312 75.5625 51.820312 C 75.558594 51.820312 75.558594 51.820312 75.554688 51.820312 C 75.246094 51.816406 74.988281 51.578125 74.96875 51.269531 C 74.730469 47.988281 71.917969 45.417969 68.566406 45.417969 C 65.269531 45.417969 62.519531 47.839844 62.167969 51.054688 C 62.132812 51.355469 61.878906 51.585938 61.574219 51.585938 C 61.269531 51.585938 60.996094 51.355469 60.960938 51.054688 C 60.609375 47.839844 57.859375 45.417969 54.566406 45.417969 C 51.269531 45.417969 48.519531 47.839844 48.167969 51.054688 C 48.144531 51.28125 47.992188 51.472656 47.777344 51.550781 C 47.601562 51.613281 47.394531 51.59375 47.238281 51.492188 C 47.082031 51.386719 46.972656 51.21875 46.960938 51.03125 C 46.609375 47.839844 43.859375 45.417969 40.566406 45.417969 C 37.214844 45.417969 34.402344 47.988281 34.164062 51.269531 C 34.140625 51.578125 33.886719 51.816406 33.574219 51.820312 C 33.574219 51.820312 33.570312 51.820312 33.566406 51.820312 C 33.261719 51.820312 33.003906 51.589844 32.972656 51.285156 L 32.949219 51.050781 C 32.597656 47.839844 29.847656 45.417969 26.554688 45.417969 C 23.019531 45.417969 20.144531 48.226562 20.117188 51.691406 Z M 79.242188 111.972656 L 29.890625 111.972656 C 29.597656 111.972656 29.351562 111.765625 29.300781 111.480469 L 18.929688 51.84375 C 18.925781 51.808594 18.921875 51.777344 18.921875 51.742188 C 18.921875 47.597656 22.347656 44.226562 26.554688 44.226562 C 29.683594 44.226562 32.398438 46.078125 33.566406 48.777344 C 34.742188 46.09375 37.457031 44.226562 40.566406 44.226562 C 43.679688 44.226562 46.386719 46.058594 47.566406 48.742188 C 48.746094 46.058594 51.449219 44.226562 54.566406 44.226562 C 57.679688 44.226562 60.386719 46.058594 61.566406 48.742188 C 62.746094 46.058594 65.449219 44.226562 68.566406 44.226562 C 71.671875 44.226562 74.390625 46.097656 75.5625 48.777344 C 76.734375 46.078125 79.449219 44.226562 82.578125 44.226562 C 86.785156 44.226562 90.207031 47.597656 90.207031 51.742188 C 90.207031 51.777344 90.203125 51.808594 90.199219 51.84375 L 79.828125 111.480469 C 79.78125 111.765625 79.53125 111.972656 79.242188 111.972656 " fill-opacity="1" fill-rule="nonzero"/></g><path fill="#e20016" d="M 69.390625 111.378906 L 75.585938 50.988281 C 75.964844 47.523438 78.949219 44.820312 82.578125 44.820312 C 86.460938 44.820312 89.609375 47.917969 89.609375 51.742188 L 79.242188 111.378906 L 69.390625 111.378906 " fill-opacity="1" fill-rule="nonzero"/><path fill="#e20016" d="M 59.492188 111.378906 L 61.554688 50.988281 C 61.175781 47.523438 58.191406 44.820312 54.566406 44.820312 C 50.9375 44.820312 47.953125 47.523438 47.574219 50.988281 L 49.640625 111.378906 L 59.492188 111.378906 " fill-opacity="1" fill-rule="nonzero"/><path fill="#e20016" d="M 39.738281 111.378906 L 33.542969 50.988281 C 33.164062 47.523438 30.179688 44.820312 26.554688 44.820312 C 22.667969 44.820312 19.519531 47.917969 19.519531 51.742188 L 29.890625 111.378906 L 39.738281 111.378906 " fill-opacity="1" fill-rule="nonzero"/><path fill="#fffaf1" d="M 75.578125 51.367188 C 75.386719 47.722656 72.320312 44.820312 68.5625 44.820312 C 64.9375 44.820312 61.953125 47.523438 61.574219 50.988281 L 59.519531 111.09375 L 69.390625 111.09375 L 75.578125 51.367188 " fill-opacity="1" fill-rule="nonzero"/><path fill="#fffaf1" d="M 40.566406 44.820312 C 36.808594 44.820312 33.742188 47.722656 33.554688 51.367188 L 39.742188 111.09375 L 49.613281 111.09375 L 47.554688 50.988281 C 47.175781 47.523438 44.191406 44.820312 40.566406 44.820312 " fill-opacity="1" fill-rule="nonzero"/><path fill="#f2b151" d="M 71.308594 45.601562 C 71.085938 45.71875 70.847656 45.8125 70.597656 45.882812 C 68.660156 46.417969 66.652344 45.289062 66.113281 43.359375 C 65.996094 42.941406 65.960938 42.519531 65.992188 42.113281 C 66.019531 41.703125 66.125 41.304688 66.289062 40.929688 C 66.453125 40.550781 66.683594 40.203125 66.964844 39.898438 C 66.523438 40.132812 66.148438 40.445312 65.847656 40.816406 C 64.722656 40.453125 63.800781 39.558594 63.460938 38.335938 C 63.230469 37.507812 63.304688 36.667969 63.625 35.933594 C 62.730469 36.832031 62.339844 38.164062 62.699219 39.460938 C 63.050781 40.726562 64.03125 41.644531 65.210938 41.984375 C 64.996094 42.640625 64.964844 43.367188 65.164062 44.078125 C 65.699219 46.007812 67.710938 47.140625 69.644531 46.605469 C 70.308594 46.421875 70.875 46.070312 71.308594 45.601562 " fill-opacity="1" fill-rule="nonzero"/><path fill="#f9d482" d="M 71.308594 45.601562 C 71.316406 45.597656 71.320312 45.597656 71.324219 45.59375 C 72.167969 44.699219 72.53125 43.40625 72.179688 42.136719 C 72.160156 42.070312 72.132812 42.011719 72.113281 41.945312 C 74.050781 41.410156 75.183594 39.410156 74.644531 37.476562 C 74.109375 35.542969 72.101562 34.414062 70.164062 34.949219 C 69.578125 35.113281 69.066406 35.410156 68.648438 35.800781 C 67.753906 34.996094 66.480469 34.644531 65.230469 34.992188 C 64.601562 35.164062 64.054688 35.496094 63.625 35.933594 C 63.304688 36.667969 63.230469 37.507812 63.460938 38.335938 C 63.800781 39.558594 64.722656 40.453125 65.847656 40.816406 C 66.148438 40.445312 66.523438 40.132812 66.964844 39.898438 C 66.683594 40.203125 66.453125 40.550781 66.289062 40.929688 C 66.125 41.304688 66.019531 41.703125 65.992188 42.113281 C 65.960938 42.519531 65.996094 42.941406 66.113281 43.359375 C 66.652344 45.289062 68.660156 46.417969 70.597656 45.882812 C 70.847656 45.8125 71.085938 45.71875 71.308594 45.601562 " fill-opacity="1" fill-rule="nonzero"/><path fill="#f9d482" d="M 96.164062 31.488281 C 96.097656 31.800781 95.996094 32.105469 95.855469 32.40625 C 94.796875 34.710938 92.058594 35.730469 89.746094 34.671875 C 89.25 34.445312 88.808594 34.132812 88.4375 33.773438 C 88.066406 33.410156 87.761719 32.984375 87.53125 32.523438 C 87.300781 32.050781 87.148438 31.546875 87.085938 31.027344 C 86.953125 31.644531 86.949219 32.261719 87.066406 32.855469 C 85.792969 33.644531 84.171875 33.800781 82.710938 33.132812 C 81.714844 32.679688 80.964844 31.921875 80.511719 31.019531 C 80.652344 32.609375 81.625 34.074219 83.179688 34.785156 C 84.695312 35.480469 86.386719 35.28125 87.679688 34.421875 C 88.136719 35.164062 88.820312 35.785156 89.671875 36.175781 C 91.984375 37.234375 94.71875 36.21875 95.777344 33.910156 C 96.140625 33.125 96.261719 32.292969 96.164062 31.488281 " fill-opacity="1" fill-rule="nonzero"/><path fill="#fff3b3" d="M 96.164062 31.488281 C 96.164062 31.480469 96.167969 31.476562 96.164062 31.46875 C 95.992188 29.925781 95.03125 28.515625 93.511719 27.820312 C 93.433594 27.785156 93.351562 27.761719 93.273438 27.730469 C 94.335938 25.421875 93.320312 22.695312 91.003906 21.636719 C 88.691406 20.578125 85.957031 21.589844 84.894531 23.898438 C 84.574219 24.597656 84.445312 25.335938 84.484375 26.054688 C 82.972656 26.261719 81.59375 27.207031 80.910156 28.695312 C 80.5625 29.441406 80.441406 30.242188 80.511719 31.019531 C 80.964844 31.921875 81.714844 32.679688 82.710938 33.132812 C 84.171875 33.800781 85.792969 33.644531 87.066406 32.855469 C 86.949219 32.261719 86.953125 31.644531 87.085938 31.027344 C 87.148438 31.546875 87.300781 32.050781 87.53125 32.523438 C 87.761719 32.984375 88.066406 33.410156 88.4375 33.773438 C 88.808594 34.132812 89.25 34.445312 89.746094 34.671875 C 92.058594 35.730469 94.796875 34.710938 95.855469 32.40625 C 95.996094 32.105469 96.097656 31.800781 96.164062 31.488281 " fill-opacity="1" fill-rule="nonzero"/><path fill="#f9d482" d="M 76.597656 34.046875 C 76.890625 33.917969 77.195312 33.824219 77.519531 33.761719 C 79.996094 33.28125 82.402344 34.890625 82.882812 37.363281 C 82.988281 37.894531 82.992188 38.425781 82.914062 38.9375 C 82.835938 39.445312 82.667969 39.933594 82.425781 40.386719 C 82.179688 40.84375 81.863281 41.261719 81.476562 41.609375 C 82.050781 41.363281 82.554688 41.007812 82.96875 40.570312 C 84.339844 41.136719 85.40625 42.351562 85.710938 43.910156 C 85.917969 44.976562 85.738281 46.019531 85.269531 46.902344 C 86.476562 45.871094 87.097656 44.242188 86.773438 42.578125 C 86.457031 40.960938 85.320312 39.714844 83.878906 39.171875 C 84.210938 38.375 84.324219 37.464844 84.144531 36.554688 C 83.664062 34.082031 81.257812 32.472656 78.777344 32.953125 C 77.933594 33.117188 77.191406 33.5 76.597656 34.046875 " fill-opacity="1" fill-rule="nonzero"/><path fill="#fff3b3" d="M 76.597656 34.046875 C 76.589844 34.046875 76.585938 34.046875 76.582031 34.054688 C 75.433594 35.085938 74.847656 36.675781 75.167969 38.296875 C 75.183594 38.382812 75.210938 38.460938 75.230469 38.542969 C 72.753906 39.023438 71.132812 41.417969 71.617188 43.890625 C 72.097656 46.363281 74.5 47.976562 76.980469 47.496094 C 77.730469 47.351562 78.402344 47.023438 78.960938 46.578125 C 80 47.675781 81.5625 48.238281 83.164062 47.929688 C 83.96875 47.773438 84.683594 47.410156 85.269531 46.902344 C 85.738281 46.019531 85.917969 44.976562 85.710938 43.910156 C 85.40625 42.351562 84.339844 41.136719 82.96875 40.570312 C 82.554688 41.007812 82.050781 41.363281 81.476562 41.609375 C 81.863281 41.261719 82.179688 40.84375 82.425781 40.386719 C 82.667969 39.933594 82.835938 39.445312 82.914062 38.9375 C 82.992188 38.425781 82.988281 37.894531 82.882812 37.363281 C 82.402344 34.890625 79.996094 33.28125 77.519531 33.761719 C 77.195312 33.824219 76.890625 33.917969 76.597656 34.046875 " fill-opacity="1" fill-rule="nonzero"/><path fill="#f2b151" d="M 89.457031 35.859375 C 89.164062 35.933594 88.878906 36.039062 88.597656 36.175781 C 86.441406 37.230469 85.476562 39.6875 86.449219 41.660156 C 86.65625 42.085938 86.941406 42.457031 87.277344 42.765625 C 87.613281 43.070312 88.007812 43.3125 88.4375 43.492188 C 88.875 43.671875 89.34375 43.777344 89.828125 43.804688 C 89.253906 43.957031 88.675781 43.992188 88.121094 43.921875 C 87.382812 45.078125 87.222656 46.511719 87.839844 47.757812 C 88.253906 48.609375 88.957031 49.230469 89.796875 49.578125 C 88.316406 49.539062 86.953125 48.761719 86.300781 47.433594 C 85.667969 46.144531 85.859375 44.648438 86.667969 43.464844 C 85.980469 43.101562 85.40625 42.539062 85.046875 41.808594 C 84.078125 39.835938 85.039062 37.378906 87.195312 36.324219 C 87.929688 35.964844 88.707031 35.816406 89.457031 35.859375 " fill-opacity="1" fill-rule="nonzero"/><g clip-path="url(#b41b70e731)"><path fill="#f9d482" d="M 89.457031 35.859375 C 89.460938 35.855469 89.464844 35.855469 89.472656 35.855469 C 90.90625 35.925781 92.214844 36.695312 92.855469 37.992188 C 92.886719 38.058594 92.910156 38.125 92.9375 38.195312 C 95.09375 37.140625 97.628906 37.886719 98.597656 39.863281 C 99.570312 41.835938 98.609375 44.292969 96.453125 45.347656 C 95.800781 45.667969 95.109375 45.820312 94.441406 45.824219 C 94.242188 47.164062 93.351562 48.425781 91.960938 49.105469 C 91.261719 49.449219 90.515625 49.597656 89.796875 49.578125 C 88.957031 49.230469 88.253906 48.609375 87.839844 47.757812 C 87.222656 46.511719 87.382812 45.078125 88.121094 43.921875 C 88.675781 43.992188 89.253906 43.957031 89.828125 43.804688 C 89.34375 43.777344 88.875 43.671875 88.4375 43.492188 C 88.007812 43.3125 87.613281 43.070312 87.277344 42.765625 C 86.941406 42.457031 86.65625 42.085938 86.449219 41.660156 C 85.476562 39.6875 86.441406 37.230469 88.597656 36.175781 C 88.878906 36.039062 89.164062 35.933594 89.457031 35.859375 " fill-opacity="1" fill-rule="nonzero"/></g><path fill="#f9d482" d="M 78.070312 0.667969 C 78.375 0.871094 78.65625 1.105469 78.917969 1.375 C 80.917969 3.449219 80.863281 6.75 78.785156 8.746094 C 78.335938 9.175781 77.828125 9.511719 77.289062 9.75 C 76.753906 9.992188 76.175781 10.136719 75.589844 10.1875 C 74.996094 10.234375 74.398438 10.1875 73.824219 10.035156 C 74.417969 10.433594 75.070312 10.695312 75.75 10.816406 C 76.054688 12.480469 75.550781 14.257812 74.238281 15.519531 C 73.34375 16.378906 72.230469 16.855469 71.085938 16.953125 C 72.828125 17.46875 74.785156 17.050781 76.183594 15.707031 C 77.542969 14.402344 78.035156 12.539062 77.660156 10.820312 C 78.636719 10.644531 79.578125 10.1875 80.34375 9.449219 C 82.421875 7.453125 82.480469 4.152344 80.476562 2.082031 C 79.796875 1.371094 78.964844 0.902344 78.070312 0.667969 " fill-opacity="1" fill-rule="nonzero"/><path fill="#fff3b3" d="M 78.070312 0.667969 C 78.066406 0.664062 78.0625 0.660156 78.054688 0.660156 C 76.347656 0.203125 74.457031 0.628906 73.089844 1.941406 C 73.019531 2.011719 72.960938 2.082031 72.898438 2.15625 C 70.894531 0.0820312 67.585938 0.0195312 65.507812 2.015625 C 63.429688 4.015625 63.367188 7.316406 65.367188 9.386719 C 65.976562 10.019531 66.707031 10.460938 67.484375 10.714844 C 67.074219 12.390625 67.5 14.238281 68.792969 15.574219 C 69.441406 16.246094 70.238281 16.710938 71.085938 16.953125 C 72.230469 16.855469 73.34375 16.378906 74.238281 15.519531 C 75.550781 14.257812 76.054688 12.480469 75.75 10.816406 C 75.070312 10.695312 74.417969 10.433594 73.824219 10.035156 C 74.398438 10.1875 74.996094 10.234375 75.589844 10.1875 C 76.175781 10.136719 76.753906 9.992188 77.289062 9.75 C 77.828125 9.511719 78.335938 9.175781 78.785156 8.746094 C 80.863281 6.75 80.917969 3.449219 78.917969 1.375 C 78.65625 1.105469 78.375 0.871094 78.070312 0.667969 " fill-opacity="1" fill-rule="nonzero"/><path fill="#f9d482" d="M 53.636719 0.109375 C 53.910156 0.207031 54.171875 0.332031 54.425781 0.488281 C 56.375 1.703125 56.972656 4.261719 55.753906 6.203125 C 55.492188 6.621094 55.164062 6.976562 54.796875 7.269531 C 54.429688 7.558594 54.011719 7.78125 53.570312 7.929688 C 53.121094 8.085938 52.648438 8.164062 52.175781 8.15625 C 52.710938 8.351562 53.265625 8.425781 53.816406 8.390625 C 54.375 9.613281 54.328125 11.082031 53.5625 12.308594 C 53.035156 13.144531 52.269531 13.726562 51.40625 14.023438 C 52.851562 14.082031 54.28125 13.386719 55.097656 12.078125 C 55.894531 10.808594 55.914062 9.273438 55.292969 8.023438 C 56.007812 7.695312 56.644531 7.160156 57.09375 6.445312 C 58.3125 4.503906 57.714844 1.945312 55.765625 0.730469 C 55.105469 0.316406 54.371094 0.117188 53.636719 0.109375 " fill-opacity="1" fill-rule="nonzero"/><path fill="#fff3b3" d="M 53.636719 0.109375 C 53.632812 0.105469 53.628906 0.101562 53.621094 0.105469 C 52.214844 0.0820312 50.839844 0.773438 50.039062 2.050781 C 50 2.117188 49.96875 2.1875 49.929688 2.253906 C 47.984375 1.039062 45.417969 1.632812 44.199219 3.574219 C 42.984375 5.515625 43.578125 8.074219 45.527344 9.289062 C 46.117188 9.65625 46.765625 9.855469 47.414062 9.90625 C 47.425781 11.28125 48.113281 12.621094 49.367188 13.402344 C 50 13.796875 50.703125 14 51.40625 14.023438 C 52.269531 13.726562 53.035156 13.144531 53.5625 12.308594 C 54.328125 11.082031 54.375 9.613281 53.816406 8.390625 C 53.265625 8.425781 52.710938 8.351562 52.175781 8.15625 C 52.648438 8.164062 53.121094 8.085938 53.570312 7.929688 C 54.011719 7.78125 54.429688 7.558594 54.796875 7.269531 C 55.164062 6.976562 55.492188 6.621094 55.753906 6.203125 C 56.972656 4.261719 56.375 1.703125 54.425781 0.488281 C 54.171875 0.332031 53.910156 0.207031 53.636719 0.109375 " fill-opacity="1" fill-rule="nonzero"/><path fill="#f9d482" d="M 82.746094 22.671875 C 82.933594 22.957031 83.085938 23.265625 83.203125 23.59375 C 84.132812 26.121094 82.835938 28.925781 80.300781 29.851562 C 79.757812 30.050781 79.195312 30.144531 78.644531 30.152344 C 78.09375 30.15625 77.542969 30.058594 77.023438 29.882812 C 76.496094 29.703125 76.003906 29.433594 75.570312 29.089844 C 75.929688 29.65625 76.390625 30.121094 76.921875 30.484375 C 76.554688 32.023438 75.453125 33.351562 73.851562 33.9375 C 72.761719 34.335938 71.625 34.324219 70.613281 33.980469 C 71.910156 35.074219 73.738281 35.457031 75.445312 34.832031 C 77.101562 34.226562 78.226562 32.816406 78.558594 31.207031 C 79.457031 31.417969 80.4375 31.382812 81.371094 31.042969 C 83.90625 30.113281 85.203125 27.3125 84.273438 24.78125 C 83.957031 23.921875 83.421875 23.203125 82.746094 22.671875 " fill-opacity="1" fill-rule="nonzero"/><path fill="#fff3b3" d="M 82.746094 22.671875 C 82.746094 22.667969 82.742188 22.660156 82.734375 22.65625 C 81.449219 21.625 79.667969 21.277344 78.003906 21.886719 C 77.917969 21.917969 77.839844 21.960938 77.757812 21.996094 C 76.828125 19.46875 74.019531 18.171875 71.484375 19.097656 C 68.949219 20.023438 67.648438 22.824219 68.578125 25.351562 C 68.859375 26.121094 69.320312 26.773438 69.886719 27.285156 C 68.898438 28.566406 68.570312 30.304688 69.167969 31.9375 C 69.472656 32.757812 69.976562 33.453125 70.613281 33.980469 C 71.625 34.324219 72.761719 34.335938 73.851562 33.9375 C 75.453125 33.351562 76.554688 32.023438 76.921875 30.484375 C 76.390625 30.121094 75.929688 29.65625 75.570312 29.089844 C 76.003906 29.433594 76.496094 29.703125 77.023438 29.882812 C 77.542969 30.058594 78.09375 30.15625 78.644531 30.152344 C 79.195312 30.144531 79.757812 30.050781 80.300781 29.851562 C 82.835938 28.925781 84.132812 26.121094 83.203125 23.59375 C 83.085938 23.265625 82.933594 22.957031 82.746094 22.671875 " fill-opacity="1" fill-rule="nonzero"/><path fill="#f9d482" d="M 54.339844 33.257812 C 54.636719 33.128906 54.945312 33.035156 55.273438 32.972656 C 57.777344 32.496094 60.199219 34.144531 60.679688 36.652344 C 60.78125 37.1875 60.785156 37.730469 60.703125 38.246094 C 60.621094 38.757812 60.449219 39.257812 60.207031 39.710938 C 59.953125 40.175781 59.628906 40.59375 59.238281 40.949219 C 59.824219 40.699219 60.332031 40.339844 60.75 39.898438 C 62.132812 40.480469 63.207031 41.71875 63.511719 43.300781 C 63.714844 44.378906 63.53125 45.4375 63.054688 46.328125 C 64.273438 45.289062 64.910156 43.640625 64.589844 41.953125 C 64.277344 40.3125 63.132812 39.042969 61.675781 38.488281 C 62.015625 37.679688 62.128906 36.761719 61.953125 35.835938 C 61.476562 33.328125 59.054688 31.683594 56.550781 32.160156 C 55.695312 32.320312 54.941406 32.707031 54.339844 33.257812 " fill-opacity="1" fill-rule="nonzero"/><path fill="#fff3b3" d="M 54.339844 33.257812 C 54.335938 33.257812 54.328125 33.257812 54.324219 33.265625 C 53.160156 34.304688 52.566406 35.914062 52.878906 37.558594 C 52.894531 37.644531 52.921875 37.726562 52.941406 37.808594 C 50.4375 38.28125 48.792969 40.703125 49.273438 43.210938 C 49.75 45.71875 52.167969 47.367188 54.675781 46.890625 C 55.4375 46.746094 56.117188 46.421875 56.679688 45.96875 C 57.730469 47.085938 59.304688 47.664062 60.921875 47.359375 C 61.734375 47.203125 62.460938 46.839844 63.054688 46.328125 C 63.53125 45.4375 63.714844 44.378906 63.511719 43.300781 C 63.207031 41.71875 62.132812 40.480469 60.75 39.898438 C 60.332031 40.339844 59.824219 40.699219 59.238281 40.949219 C 59.628906 40.59375 59.953125 40.175781 60.207031 39.710938 C 60.449219 39.257812 60.621094 38.757812 60.703125 38.246094 C 60.785156 37.730469 60.78125 37.1875 60.679688 36.652344 C 60.199219 34.144531 57.777344 32.496094 55.273438 32.972656 C 54.945312 33.035156 54.636719 33.128906 54.339844 33.257812 " fill-opacity="1" fill-rule="nonzero"/><path fill="#f2b151" d="M 15.378906 37.054688 C 15.640625 36.894531 15.914062 36.761719 16.214844 36.660156 C 18.496094 35.867188 20.996094 37.070312 21.789062 39.34375 C 21.957031 39.835938 22.035156 40.339844 22.03125 40.832031 C 22.027344 41.324219 21.933594 41.8125 21.765625 42.273438 C 21.59375 42.742188 21.347656 43.175781 21.03125 43.5625 C 21.542969 43.25 21.972656 42.84375 22.304688 42.371094 C 23.679688 42.722656 24.855469 43.730469 25.355469 45.167969 C 25.699219 46.148438 25.671875 47.160156 25.347656 48.0625 C 26.347656 46.917969 26.71875 45.292969 26.183594 43.761719 C 25.664062 42.269531 24.414062 41.242188 22.976562 40.925781 C 23.183594 40.125 23.164062 39.25 22.871094 38.410156 C 22.078125 36.132812 19.582031 34.933594 17.296875 35.722656 C 16.519531 35.992188 15.867188 36.460938 15.378906 37.054688 " fill-opacity="1" fill-rule="nonzero"/><path fill="#f9d482" d="M 15.378906 37.054688 C 15.375 37.058594 15.371094 37.058594 15.367188 37.066406 C 14.421875 38.199219 14.082031 39.78125 14.605469 41.277344 C 14.632812 41.355469 14.667969 41.425781 14.699219 41.5 C 12.414062 42.292969 11.207031 44.777344 12 47.054688 C 12.796875 49.332031 15.289062 50.539062 17.574219 49.746094 C 18.265625 49.503906 18.859375 49.109375 19.328125 48.605469 C 20.460938 49.507812 22.015625 49.828125 23.492188 49.316406 C 24.230469 49.0625 24.863281 48.621094 25.347656 48.0625 C 25.671875 47.160156 25.699219 46.148438 25.355469 45.167969 C 24.855469 43.730469 23.679688 42.722656 22.304688 42.371094 C 21.972656 42.84375 21.542969 43.25 21.03125 43.5625 C 21.347656 43.175781 21.59375 42.742188 21.765625 42.273438 C 21.933594 41.8125 22.027344 41.324219 22.03125 40.832031 C 22.035156 40.339844 21.957031 39.835938 21.789062 39.34375 C 20.996094 37.070312 18.496094 35.867188 16.214844 36.660156 C 15.914062 36.761719 15.640625 36.894531 15.378906 37.054688 " fill-opacity="1" fill-rule="nonzero"/><path fill="#f9d482" d="M 37.046875 35.613281 C 37.28125 35.832031 37.492188 36.078125 37.683594 36.351562 C 39.136719 38.449219 38.617188 41.328125 36.511719 42.777344 C 36.0625 43.089844 35.566406 43.3125 35.058594 43.445312 C 34.558594 43.582031 34.03125 43.625 33.511719 43.582031 C 32.984375 43.542969 32.472656 43.417969 31.988281 43.203125 C 32.453125 43.632812 32.984375 43.953125 33.5625 44.160156 C 33.589844 45.660156 32.898438 47.140625 31.566406 48.054688 C 30.664062 48.679688 29.617188 48.9375 28.605469 48.863281 C 30.054688 49.558594 31.824219 49.472656 33.238281 48.5 C 34.617188 47.550781 35.316406 45.992188 35.234375 44.433594 C 36.113281 44.417969 37 44.152344 37.777344 43.617188 C 39.878906 42.167969 40.402344 39.285156 38.949219 37.1875 C 38.453125 36.472656 37.792969 35.941406 37.046875 35.613281 " fill-opacity="1" fill-rule="nonzero"/><path fill="#fff3b3" d="M 37.046875 35.613281 C 37.042969 35.609375 37.039062 35.601562 37.03125 35.601562 C 35.605469 34.960938 33.890625 35.0625 32.507812 36.015625 C 32.4375 36.066406 32.375 36.121094 32.308594 36.175781 C 30.851562 34.078125 27.964844 33.550781 25.859375 35.003906 C 23.757812 36.453125 23.230469 39.332031 24.6875 41.429688 C 25.128906 42.066406 25.703125 42.558594 26.34375 42.894531 C 25.746094 44.300781 25.855469 45.976562 26.796875 47.328125 C 27.269531 48.011719 27.894531 48.527344 28.605469 48.863281 C 29.617188 48.9375 30.664062 48.679688 31.566406 48.054688 C 32.898438 47.140625 33.589844 45.660156 33.5625 44.160156 C 32.984375 43.953125 32.453125 43.632812 31.988281 43.203125 C 32.472656 43.417969 32.984375 43.542969 33.511719 43.582031 C 34.03125 43.625 34.558594 43.582031 35.058594 43.445312 C 35.566406 43.3125 36.0625 43.089844 36.511719 42.777344 C 38.617188 41.328125 39.136719 38.449219 37.683594 36.351562 C 37.492188 36.078125 37.28125 35.832031 37.046875 35.613281 " fill-opacity="1" fill-rule="nonzero"/><path fill="#f2b151" d="M 42.972656 49.253906 C 42.652344 49.1875 42.335938 49.085938 42.027344 48.949219 C 39.65625 47.894531 38.585938 45.125 39.644531 42.757812 C 39.871094 42.246094 40.183594 41.796875 40.550781 41.414062 C 40.914062 41.03125 41.347656 40.71875 41.820312 40.480469 C 42.296875 40.238281 42.8125 40.078125 43.34375 40.011719 C 42.714844 39.878906 42.082031 39.882812 41.472656 40.007812 C 40.652344 38.722656 40.472656 37.074219 41.140625 35.578125 C 41.597656 34.5625 42.363281 33.789062 43.285156 33.320312 C 41.660156 33.480469 40.167969 34.484375 39.457031 36.074219 C 38.765625 37.621094 38.984375 39.34375 39.875 40.648438 C 39.125 41.125 38.492188 41.824219 38.101562 42.695312 C 37.046875 45.0625 38.117188 47.832031 40.488281 48.886719 C 41.296875 49.25 42.148438 49.359375 42.972656 49.253906 " fill-opacity="1" fill-rule="nonzero"/><path fill="#f9d482" d="M 42.972656 49.253906 C 42.976562 49.257812 42.984375 49.257812 42.992188 49.253906 C 44.566406 49.058594 46 48.070312 46.695312 46.515625 C 46.730469 46.433594 46.753906 46.355469 46.785156 46.273438 C 49.15625 47.328125 51.9375 46.265625 52.996094 43.898438 C 54.054688 41.53125 52.988281 38.757812 50.617188 37.703125 C 49.894531 37.382812 49.136719 37.261719 48.402344 37.308594 C 48.175781 35.773438 47.195312 34.378906 45.664062 33.695312 C 44.894531 33.355469 44.074219 33.238281 43.285156 33.320312 C 42.363281 33.789062 41.597656 34.5625 41.140625 35.578125 C 40.472656 37.074219 40.652344 38.722656 41.472656 40.007812 C 42.082031 39.882812 42.714844 39.878906 43.34375 40.011719 C 42.8125 40.078125 42.296875 40.238281 41.820312 40.480469 C 41.347656 40.71875 40.914062 41.03125 40.550781 41.414062 C 40.183594 41.796875 39.871094 42.246094 39.644531 42.757812 C 38.585938 45.125 39.65625 47.894531 42.027344 48.949219 C 42.335938 49.085938 42.652344 49.1875 42.972656 49.253906 " fill-opacity="1" fill-rule="nonzero"/><path fill="#f9d482" d="M 56.054688 8.296875 C 56.300781 8.074219 56.570312 7.878906 56.867188 7.707031 C 59.15625 6.402344 62.074219 7.1875 63.382812 9.464844 C 63.667969 9.957031 63.851562 10.484375 63.945312 11.011719 C 64.039062 11.539062 64.039062 12.082031 63.953125 12.609375 C 63.863281 13.144531 63.6875 13.660156 63.425781 14.136719 C 63.910156 13.699219 64.285156 13.179688 64.546875 12.605469 C 66.09375 12.707031 67.558594 13.546875 68.386719 14.988281 C 68.949219 15.96875 69.125 17.0625 68.960938 18.09375 C 69.804688 16.667969 69.867188 14.847656 68.984375 13.3125 C 68.128906 11.820312 66.585938 10.972656 64.976562 10.917969 C 65.035156 10.019531 64.839844 9.085938 64.355469 8.246094 C 63.046875 5.964844 60.125 5.179688 57.839844 6.484375 C 57.0625 6.933594 56.457031 7.5625 56.054688 8.296875 " fill-opacity="1" fill-rule="nonzero"/><path fill="#fff3b3" d="M 56.054688 8.296875 C 56.046875 8.300781 56.042969 8.304688 56.039062 8.3125 C 55.257812 9.71875 55.214844 11.480469 56.074219 12.980469 C 56.117188 13.058594 56.171875 13.125 56.222656 13.199219 C 53.933594 14.507812 53.144531 17.417969 54.453125 19.695312 C 55.765625 21.976562 58.679688 22.765625 60.96875 21.460938 C 61.664062 21.0625 62.21875 20.515625 62.617188 19.886719 C 64.015625 20.621094 65.75 20.65625 67.222656 19.8125 C 67.964844 19.386719 68.554688 18.789062 68.960938 18.09375 C 69.125 17.0625 68.949219 15.96875 68.386719 14.988281 C 67.558594 13.546875 66.09375 12.707031 64.546875 12.605469 C 64.285156 13.179688 63.910156 13.699219 63.425781 14.136719 C 63.6875 13.660156 63.863281 13.144531 63.953125 12.609375 C 64.039062 12.082031 64.039062 11.539062 63.945312 11.011719 C 63.851562 10.484375 63.667969 9.957031 63.382812 9.464844 C 62.074219 7.1875 59.15625 6.402344 56.867188 7.707031 C 56.570312 7.878906 56.300781 8.074219 56.054688 8.296875 " fill-opacity="1" fill-rule="nonzero"/><path fill="#f2b151" d="M 67.699219 33.355469 C 67.480469 33.574219 67.242188 33.769531 66.972656 33.941406 C 64.917969 35.265625 62.171875 34.679688 60.84375 32.628906 C 60.558594 32.1875 60.359375 31.710938 60.246094 31.222656 C 60.132812 30.738281 60.109375 30.238281 60.160156 29.742188 C 60.21875 29.242188 60.355469 28.753906 60.574219 28.300781 C 60.144531 28.730469 59.824219 29.230469 59.609375 29.773438 C 58.171875 29.753906 56.769531 29.046875 55.933594 27.753906 C 55.363281 26.871094 55.144531 25.863281 55.25 24.902344 C 54.535156 26.261719 54.5625 27.953125 55.457031 29.335938 C 56.328125 30.675781 57.800781 31.390625 59.292969 31.359375 C 59.28125 32.199219 59.511719 33.054688 60 33.808594 C 61.328125 35.859375 64.074219 36.445312 66.128906 35.121094 C 66.832031 34.671875 67.359375 34.058594 67.699219 33.355469 " fill-opacity="1" fill-rule="nonzero"/><path fill="#f9d482" d="M 67.699219 33.355469 C 67.703125 33.351562 67.707031 33.347656 67.710938 33.339844 C 68.367188 32 68.320312 30.359375 67.449219 29.011719 C 67.402344 28.945312 67.351562 28.882812 67.304688 28.816406 C 69.359375 27.492188 69.953125 24.753906 68.625 22.703125 C 67.296875 20.652344 64.550781 20.0625 62.496094 21.386719 C 61.871094 21.789062 61.382812 22.324219 61.042969 22.925781 C 59.710938 22.3125 58.101562 22.367188 56.773438 23.222656 C 56.105469 23.652344 55.589844 24.234375 55.25 24.902344 C 55.144531 25.863281 55.363281 26.871094 55.933594 27.753906 C 56.769531 29.046875 58.171875 29.753906 59.609375 29.773438 C 59.824219 29.230469 60.144531 28.730469 60.574219 28.300781 C 60.355469 28.753906 60.21875 29.242188 60.160156 29.742188 C 60.109375 30.238281 60.132812 30.738281 60.246094 31.222656 C 60.359375 31.710938 60.558594 32.1875 60.84375 32.628906 C 62.171875 34.679688 64.917969 35.265625 66.972656 33.941406 C 67.242188 33.769531 67.480469 33.574219 67.699219 33.355469 " fill-opacity="1" fill-rule="nonzero"/><path fill="#f2b151" d="M 28.699219 34.691406 C 28.421875 34.492188 28.164062 34.265625 27.925781 34.003906 C 26.097656 31.992188 26.25 28.882812 28.265625 27.0625 C 28.699219 26.671875 29.1875 26.371094 29.703125 26.160156 C 30.214844 25.949219 30.761719 25.828125 31.316406 25.800781 C 31.875 25.769531 32.4375 25.832031 32.976562 25.992188 C 32.425781 25.601562 31.816406 25.335938 31.183594 25.199219 C 30.941406 23.625 31.46875 21.964844 32.742188 20.816406 C 33.609375 20.035156 34.675781 19.617188 35.753906 19.554688 C 34.128906 19.023438 32.273438 19.359375 30.917969 20.582031 C 29.597656 21.773438 29.082031 23.515625 29.382812 25.140625 C 28.457031 25.28125 27.558594 25.683594 26.816406 26.355469 C 24.800781 28.175781 24.648438 31.285156 26.476562 33.292969 C 27.097656 33.980469 27.867188 34.449219 28.699219 34.691406 " fill-opacity="1" fill-rule="nonzero"/><path fill="#f9d482" d="M 28.699219 34.691406 C 28.703125 34.695312 28.710938 34.703125 28.71875 34.703125 C 30.3125 35.179688 32.105469 34.832031 33.425781 33.636719 C 33.496094 33.574219 33.554688 33.507812 33.617188 33.441406 C 35.445312 35.453125 38.558594 35.609375 40.574219 33.785156 C 42.589844 31.964844 42.746094 28.859375 40.921875 26.847656 C 40.367188 26.238281 39.691406 25.800781 38.964844 25.535156 C 39.402344 23.96875 39.050781 22.21875 37.875 20.921875 C 37.28125 20.269531 36.546875 19.808594 35.753906 19.554688 C 34.675781 19.617188 33.609375 20.035156 32.742188 20.816406 C 31.46875 21.964844 30.941406 23.625 31.183594 25.199219 C 31.816406 25.335938 32.425781 25.601562 32.976562 25.992188 C 32.4375 25.832031 31.875 25.769531 31.316406 25.800781 C 30.761719 25.828125 30.214844 25.949219 29.703125 26.160156 C 29.1875 26.371094 28.699219 26.671875 28.265625 27.0625 C 26.25 28.882812 26.097656 31.992188 27.925781 34.003906 C 28.164062 34.265625 28.421875 34.492188 28.699219 34.691406 " fill-opacity="1" fill-rule="nonzero"/><path fill="#f2b151" d="M 48.207031 13.90625 C 48.183594 14.25 48.113281 14.585938 48.011719 14.921875 C 47.207031 17.515625 44.453125 18.972656 41.851562 18.171875 C 41.292969 18 40.785156 17.730469 40.339844 17.398438 C 39.894531 17.070312 39.515625 16.660156 39.207031 16.199219 C 38.894531 15.734375 38.664062 15.222656 38.527344 14.679688 C 38.46875 15.347656 38.550781 16.003906 38.757812 16.621094 C 37.519531 17.628906 35.824219 18.023438 34.179688 17.515625 C 33.0625 17.171875 32.160156 16.472656 31.558594 15.578125 C 31.929688 17.246094 33.160156 18.664062 34.910156 19.203125 C 36.609375 19.726562 38.375 19.285156 39.625 18.195312 C 40.21875 18.914062 41.023438 19.480469 41.980469 19.777344 C 44.578125 20.578125 47.335938 19.121094 48.136719 16.53125 C 48.414062 15.644531 48.425781 14.746094 48.207031 13.90625 " fill-opacity="1" fill-rule="nonzero"/><path fill="#f9d482" d="M 48.207031 13.90625 C 48.210938 13.898438 48.210938 13.894531 48.207031 13.886719 C 47.808594 12.277344 46.59375 10.914062 44.886719 10.390625 C 44.800781 10.363281 44.710938 10.347656 44.621094 10.328125 C 45.425781 7.734375 43.96875 4.984375 41.371094 4.183594 C 38.773438 3.382812 36.015625 4.835938 35.210938 7.425781 C 34.96875 8.214844 34.9375 9.015625 35.078125 9.769531 C 33.503906 10.199219 32.171875 11.390625 31.652344 13.0625 C 31.394531 13.902344 31.375 14.765625 31.558594 15.578125 C 32.160156 16.472656 33.0625 17.171875 34.179688 17.515625 C 35.824219 18.023438 37.519531 17.628906 38.757812 16.621094 C 38.550781 16.003906 38.46875 15.347656 38.527344 14.679688 C 38.664062 15.222656 38.894531 15.734375 39.207031 16.199219 C 39.515625 16.660156 39.894531 17.070312 40.339844 17.398438 C 40.785156 17.730469 41.292969 18 41.851562 18.171875 C 44.453125 18.972656 47.207031 17.515625 48.011719 14.921875 C 48.113281 14.585938 48.183594 14.25 48.207031 13.90625 " fill-opacity="1" fill-rule="nonzero"/><path fill="#f9d482" d="M 30.394531 21.648438 C 30.1875 21.894531 29.953125 22.117188 29.683594 22.320312 C 27.640625 23.867188 24.726562 23.472656 23.175781 21.4375 C 22.84375 21 22.601562 20.515625 22.441406 20.015625 C 22.285156 19.519531 22.21875 18.996094 22.234375 18.476562 C 22.253906 17.949219 22.359375 17.429688 22.550781 16.9375 C 22.136719 17.421875 21.839844 17.96875 21.660156 18.554688 C 20.15625 18.648438 18.636719 18.019531 17.65625 16.734375 C 16.988281 15.859375 16.683594 14.828125 16.714844 13.8125 C 16.078125 15.292969 16.246094 17.054688 17.289062 18.425781 C 18.304688 19.757812 19.898438 20.386719 21.457031 20.234375 C 21.515625 21.109375 21.820312 21.988281 22.390625 22.738281 C 23.941406 24.773438 26.859375 25.167969 28.898438 23.621094 C 29.59375 23.09375 30.101562 22.410156 30.394531 21.648438 " fill-opacity="1" fill-rule="nonzero"/><path fill="#fff3b3" d="M 30.394531 21.648438 C 30.402344 21.644531 30.40625 21.640625 30.40625 21.632812 C 30.988281 20.179688 30.804688 18.472656 29.789062 17.132812 C 29.734375 17.066406 29.675781 17.007812 29.617188 16.941406 C 31.660156 15.394531 32.058594 12.488281 30.507812 10.453125 C 28.957031 8.414062 26.042969 8.015625 24.003906 9.566406 C 23.382812 10.035156 22.914062 10.628906 22.605469 11.289062 C 21.164062 10.753906 19.492188 10.9375 18.171875 11.933594 C 17.507812 12.4375 17.019531 13.089844 16.714844 13.8125 C 16.683594 14.828125 16.988281 15.859375 17.65625 16.734375 C 18.636719 18.019531 20.15625 18.648438 21.660156 18.554688 C 21.839844 17.96875 22.136719 17.421875 22.550781 16.9375 C 22.359375 17.429688 22.253906 17.949219 22.234375 18.476562 C 22.21875 18.996094 22.285156 19.519531 22.441406 20.015625 C 22.601562 20.515625 22.84375 21 23.175781 21.4375 C 24.726562 23.472656 27.640625 23.867188 29.683594 22.320312 C 29.953125 22.117188 30.1875 21.894531 30.394531 21.648438 " fill-opacity="1" fill-rule="nonzero"/><path fill="#f9d482" d="M 49.144531 16.960938 C 49.519531 16.992188 49.886719 17.0625 50.253906 17.175781 C 53.082031 18.050781 54.667969 21.046875 53.789062 23.867188 C 53.601562 24.476562 53.308594 25.027344 52.945312 25.507812 C 52.582031 25.992188 52.136719 26.40625 51.632812 26.738281 C 51.125 27.078125 50.5625 27.328125 49.972656 27.476562 C 50.703125 27.539062 51.417969 27.449219 52.09375 27.226562 C 53.191406 28.570312 53.617188 30.414062 53.0625 32.195312 C 52.683594 33.410156 51.917969 34.390625 50.941406 35.042969 C 52.761719 34.644531 54.3125 33.304688 54.90625 31.410156 C 55.476562 29.5625 54.996094 27.644531 53.808594 26.289062 C 54.597656 25.648438 55.21875 24.769531 55.542969 23.730469 C 56.417969 20.910156 54.832031 17.917969 52.003906 17.042969 C 51.042969 16.742188 50.0625 16.726562 49.144531 16.960938 " fill-opacity="1" fill-rule="nonzero"/><path fill="#fff3b3" d="M 49.144531 16.960938 C 49.136719 16.957031 49.132812 16.957031 49.121094 16.960938 C 47.363281 17.394531 45.875 18.707031 45.300781 20.5625 C 45.269531 20.65625 45.253906 20.753906 45.230469 20.847656 C 42.402344 19.972656 39.398438 21.550781 38.519531 24.371094 C 37.644531 27.191406 39.222656 30.1875 42.050781 31.0625 C 42.910156 31.328125 43.785156 31.367188 44.609375 31.214844 C 45.074219 32.925781 46.371094 34.371094 48.195312 34.933594 C 49.113281 35.21875 50.058594 35.242188 50.941406 35.042969 C 51.917969 34.390625 52.683594 33.410156 53.0625 32.195312 C 53.617188 30.414062 53.191406 28.570312 52.09375 27.226562 C 51.417969 27.449219 50.703125 27.539062 49.972656 27.476562 C 50.5625 27.328125 51.125 27.078125 51.632812 26.738281 C 52.136719 26.40625 52.582031 25.992188 52.945312 25.507812 C 53.308594 25.027344 53.601562 24.476562 53.789062 23.867188 C 54.667969 21.046875 53.082031 18.050781 50.253906 17.175781 C 49.886719 17.0625 49.519531 16.992188 49.144531 16.960938 " fill-opacity="1" fill-rule="nonzero"/><g clip-path="url(#b748375428)"><path fill="#f9d482" d="M 25.789062 31.964844 C 25.699219 32.273438 25.582031 32.570312 25.425781 32.863281 C 24.222656 35.109375 21.421875 35.960938 19.171875 34.761719 C 18.6875 34.503906 18.265625 34.167969 17.917969 33.78125 C 17.566406 33.398438 17.289062 32.953125 17.085938 32.476562 C 16.882812 31.992188 16.761719 31.480469 16.734375 30.953125 C 16.558594 31.5625 16.519531 32.179688 16.601562 32.785156 C 15.28125 33.492188 13.644531 33.554688 12.222656 32.796875 C 11.257812 32.28125 10.550781 31.476562 10.15625 30.542969 C 10.195312 32.144531 11.082031 33.671875 12.59375 34.476562 C 14.066406 35.265625 15.773438 35.167969 17.117188 34.386719 C 17.53125 35.15625 18.175781 35.820312 19.003906 36.261719 C 21.253906 37.460938 24.054688 36.609375 25.253906 34.367188 C 25.664062 33.601562 25.835938 32.773438 25.789062 31.964844 " fill-opacity="1" fill-rule="nonzero"/></g><g clip-path="url(#c08cae8fd5)"><path fill="#fff3b3" d="M 25.789062 31.964844 C 25.789062 31.957031 25.792969 31.953125 25.789062 31.945312 C 25.710938 30.390625 24.835938 28.921875 23.359375 28.132812 C 23.28125 28.09375 23.203125 28.066406 23.125 28.027344 C 24.328125 25.785156 23.476562 22.992188 21.226562 21.792969 C 18.976562 20.59375 16.175781 21.441406 14.976562 23.6875 C 14.609375 24.367188 14.4375 25.097656 14.429688 25.820312 C 12.90625 25.933594 11.46875 26.796875 10.691406 28.242188 C 10.300781 28.972656 10.128906 29.765625 10.15625 30.542969 C 10.550781 31.476562 11.257812 32.28125 12.222656 32.796875 C 13.644531 33.554688 15.28125 33.492188 16.601562 32.785156 C 16.519531 32.179688 16.558594 31.5625 16.734375 30.953125 C 16.761719 31.480469 16.882812 31.992188 17.085938 32.476562 C 17.289062 32.953125 17.566406 33.398438 17.917969 33.78125 C 18.265625 34.167969 18.6875 34.503906 19.171875 34.761719 C 21.421875 35.960938 24.222656 35.109375 25.425781 32.863281 C 25.582031 32.570312 25.699219 32.273438 25.789062 31.964844 " fill-opacity="1" fill-rule="nonzero"/></g><path fill="#f2b151" d="M 79.765625 22.296875 C 79.503906 22.15625 79.257812 21.992188 79.027344 21.792969 C 77.253906 20.269531 77.046875 17.601562 78.570312 15.832031 C 78.902344 15.453125 79.285156 15.144531 79.699219 14.90625 C 80.117188 14.671875 80.570312 14.511719 81.039062 14.429688 C 81.515625 14.339844 82 14.335938 82.476562 14.414062 C 81.964844 14.136719 81.417969 13.976562 80.859375 13.929688 C 80.488281 12.609375 80.757812 11.140625 81.722656 10.023438 C 82.378906 9.261719 83.242188 8.789062 84.15625 8.625 C 82.710938 8.34375 81.164062 8.828125 80.140625 10.019531 C 79.140625 11.175781 78.886719 12.714844 79.320312 14.074219 C 78.546875 14.289062 77.820312 14.730469 77.257812 15.382812 C 75.734375 17.152344 75.941406 19.820312 77.714844 21.339844 C 78.320312 21.859375 79.027344 22.179688 79.765625 22.296875 " fill-opacity="1" fill-rule="nonzero"/><path fill="#f9d482" d="M 79.765625 22.296875 C 79.769531 22.300781 79.773438 22.304688 79.78125 22.304688 C 81.191406 22.539062 82.683594 22.050781 83.683594 20.890625 C 83.738281 20.832031 83.777344 20.765625 83.828125 20.703125 C 85.601562 22.226562 88.277344 22.023438 89.800781 20.253906 C 91.328125 18.484375 91.125 15.816406 89.347656 14.292969 C 88.808594 13.832031 88.1875 13.53125 87.539062 13.382812 C 87.742188 12 87.257812 10.542969 86.113281 9.5625 C 85.535156 9.066406 84.859375 8.753906 84.15625 8.625 C 83.242188 8.789062 82.378906 9.261719 81.722656 10.023438 C 80.757812 11.140625 80.488281 12.609375 80.859375 13.929688 C 81.417969 13.976562 81.964844 14.136719 82.476562 14.414062 C 82 14.335938 81.515625 14.339844 81.039062 14.429688 C 80.570312 14.511719 80.117188 14.671875 79.699219 14.90625 C 79.285156 15.144531 78.902344 15.453125 78.570312 15.832031 C 77.046875 17.601562 77.253906 20.269531 79.027344 21.792969 C 79.257812 21.992188 79.503906 22.15625 79.765625 22.296875 " fill-opacity="1" fill-rule="nonzero"/></svg>