<svg xmlns="http://www.w3.org/2000/svg" xmlns:xlink="http://www.w3.org/1999/xlink" width="150" zoomAndPan="magnify" viewBox="0 0 112.5 112.499997" height="150" preserveAspectRatio="xMidYMid meet" version="1.0"><defs><clipPath id="9747d2d83d"><path d="M 10.109375 14 L 30 14 L 30 55 L 10.109375 55 Z M 10.109375 14 " clip-rule="nonzero"/></clipPath><clipPath id="7dd23d1a57"><path d="M 83 14 L 101.953125 14 L 101.953125 57 L 83 57 Z M 83 14 " clip-rule="nonzero"/></clipPath><clipPath id="044ba18b88"><path d="M 19 55 L 95 55 L 95 112.003906 L 19 112.003906 Z M 19 55 " clip-rule="nonzero"/></clipPath></defs><g clip-path="url(#9747d2d83d)"><path fill="#49301b" d="M 26.671875 14.082031 C 25.363281 14.082031 24.3125 15.136719 24.3125 16.445312 L 24.3125 29.832031 L 10.109375 34.992188 L 10.109375 38.15625 L 15.628906 38.15625 L 18.632812 37.101562 L 18.632812 54.59375 L 22.320312 54.59375 L 22.320312 35.792969 L 24.3125 35.082031 L 24.3125 50.375 C 24.3125 51.679688 25.363281 52.734375 26.671875 52.734375 C 27.976562 52.734375 29.027344 51.679688 29.027344 50.375 L 29.027344 16.445312 C 29.027344 15.160156 27.976562 14.082031 26.671875 14.082031 Z M 26.671875 14.082031 " fill-opacity="1" fill-rule="nonzero"/></g><g clip-path="url(#7dd23d1a57)"><path fill="#49301b" d="M 87.890625 29.878906 L 87.890625 16.46875 C 87.890625 15.160156 86.835938 14.105469 85.53125 14.105469 C 84.226562 14.105469 83.171875 15.160156 83.171875 16.46875 L 83.171875 50.398438 C 83.171875 51.703125 84.226562 52.757812 85.53125 52.757812 C 86.835938 52.757812 87.890625 51.703125 87.890625 50.398438 L 87.890625 35.152344 L 91.074219 36.273438 L 91.074219 56.199219 L 94.738281 56.199219 L 94.738281 37.582031 L 96.433594 38.179688 L 101.953125 38.179688 L 101.953125 35.015625 Z M 87.890625 29.878906 " fill-opacity="1" fill-rule="nonzero"/></g><g clip-path="url(#044ba18b88)"><path fill="#49301b" d="M 60.039062 86.160156 L 63.75 83.136719 L 62.421875 82.105469 L 82.4375 97.691406 L 90.15625 97.691406 L 67.53125 80.0625 L 92.675781 59.589844 L 89.699219 55.921875 L 63.679688 77.105469 L 63.910156 77.289062 L 59.972656 74.21875 L 78.84375 59.636719 L 75.957031 55.898438 L 56.101562 71.191406 L 39.152344 57.984375 L 36.242188 61.722656 L 52.230469 74.171875 L 48.542969 77.039062 L 21.953125 55.898438 L 19.019531 59.613281 L 44.695312 80.015625 L 21.816406 97.691406 L 29.714844 97.578125 L 48.519531 83.042969 L 52.503906 86.207031 L 19.019531 113.488281 L 26.691406 113.328125 L 56.308594 89.210938 L 86.8125 113.464844 L 94.394531 113.441406 Z M 56.238281 83.160156 L 52.367188 80.0625 L 56.101562 77.175781 L 59.925781 80.15625 Z M 56.238281 83.160156 " fill-opacity="1" fill-rule="nonzero"/></g><path fill="#1c1c1c" d="M 67.507812 80.085938 L 63.75 83.160156 L 82.417969 97.691406 L 90.136719 97.714844 Z M 67.507812 80.085938 " fill-opacity="0.4" fill-rule="nonzero"/><path fill="#1c1c1c" d="M 21.816406 97.691406 L 29.691406 97.578125 L 48.496094 83.042969 L 44.695312 80.015625 Z M 21.816406 97.691406 " fill-opacity="0.4" fill-rule="nonzero"/><path fill="#1c1c1c" d="M 78.820312 59.636719 L 75.933594 55.875 L 56.101562 71.191406 L 39.152344 57.984375 L 36.242188 61.722656 L 52.253906 74.195312 L 48.542969 77.039062 L 52.367188 80.0625 L 56.101562 77.199219 L 59.925781 80.15625 L 63.679688 77.105469 L 59.972656 74.195312 Z M 78.820312 59.636719 " fill-opacity="0.4" fill-rule="nonzero"/><path fill="#992f39" d="M 20.898438 0.0078125 L 90.800781 0.0078125 L 90.800781 25.980469 L 20.898438 25.980469 Z M 20.898438 0.0078125 " fill-opacity="1" fill-rule="nonzero"/><path fill="#992f39" d="M 22.984375 46.707031 C 22.984375 46.707031 38.488281 48.539062 53.992188 48.816406 C 69.5 49.066406 88.945312 46.707031 88.945312 46.707031 L 97.875 59.867188 C 97.875 59.867188 84.203125 62.753906 53.992188 62.753906 C 23.785156 62.753906 14.851562 59.867188 14.851562 59.867188 Z M 22.984375 46.707031 " fill-opacity="1" fill-rule="nonzero"/><path fill="#e1a025" d="M 56.878906 3.675781 L 59.558594 9.109375 L 65.558594 9.980469 L 61.230469 14.21875 L 62.238281 20.179688 L 56.878906 17.359375 L 51.519531 20.179688 L 52.550781 14.21875 L 48.222656 9.980469 L 54.199219 9.109375 Z M 56.878906 3.675781 " fill-opacity="1" fill-rule="nonzero"/></svg>